<svg width="16" height="22" viewBox="0 0 16 22" fill="none" xmlns="http://www.w3.org/2000/svg">
  <path d="M14.5455 8.76672C14.5455 7.03076 13.8558 5.3659 12.6283 4.13839C11.4008 2.91088 9.73596 2.22127 8 2.22127C6.26404 2.22127 4.59918 2.91088 3.37166 4.13839C2.14415 5.3659 1.45455 7.03076 1.45455 8.76672C1.45455 11.4518 3.60291 14.9515 8 19.1435C12.3971 14.9515 14.5455 11.4518 14.5455 8.76672ZM8 21.1304C2.66618 16.2824 0 12.1602 0 8.76672C0 6.64499 0.842855 4.61016 2.34315 3.10987C3.84344 1.60958 5.87827 0.766724 8 0.766724C10.1217 0.766724 12.1566 1.60958 13.6569 3.10987C15.1571 4.61016 16 6.64499 16 8.76672C16 12.1602 13.3338 16.2824 8 21.1304Z" fill="#000103" fill-opacity="0.7" />
  <path d="M7.99997 10.9485C8.57862 10.9485 9.13357 10.7186 9.54274 10.3095C9.95191 9.90028 10.1818 9.34533 10.1818 8.76667C10.1818 8.18802 9.95191 7.63307 9.54274 7.22389C9.13357 6.81472 8.57862 6.58486 7.99997 6.58486C7.42131 6.58486 6.86636 6.81472 6.45719 7.22389C6.04802 7.63307 5.81815 8.18802 5.81815 8.76667C5.81815 9.34533 6.04802 9.90028 6.45719 10.3095C6.86636 10.7186 7.42131 10.9485 7.99997 10.9485ZM7.99997 12.403C7.03554 12.403 6.11062 12.0199 5.42867 11.338C4.74672 10.656 4.3636 9.7311 4.3636 8.76667C4.3636 7.80225 4.74672 6.87733 5.42867 6.19538C6.11062 5.51343 7.03554 5.13031 7.99997 5.13031C8.96439 5.13031 9.88931 5.51343 10.5713 6.19538C11.2532 6.87733 11.6363 7.80225 11.6363 8.76667C11.6363 9.7311 11.2532 10.656 10.5713 11.338C9.88931 12.0199 8.96439 12.403 7.99997 12.403Z" fill="#000103" fill-opacity="0.7" />
</svg>