<svg width="20" height="16" viewBox="0 0 20 16" fill="none" xmlns="http://www.w3.org/2000/svg">
  <path d="M3.57156 4.05908C3.57156 3.39602 3.83496 2.76011 4.30382 2.29125C4.77267 1.8224 5.40858 1.55899 6.07165 1.55899C6.73471 1.55899 7.37062 1.8224 7.83947 2.29125C8.30833 2.76011 8.57173 3.39602 8.57173 4.05908C8.57173 4.72215 8.30833 5.35805 7.83947 5.82691C7.37062 6.29577 6.73471 6.55917 6.07165 6.55917C5.40858 6.55917 4.77267 6.29577 4.30382 5.82691C3.83496 5.35805 3.57156 4.72215 3.57156 4.05908ZM6.07165 0.130371C5.02969 0.130371 4.0304 0.544288 3.29363 1.28106C2.55685 2.01784 2.14293 3.01712 2.14293 4.05908C2.14293 5.10104 2.55685 6.10033 3.29363 6.8371C4.0304 7.57388 5.02969 7.98779 6.07165 7.98779C7.1136 7.98779 8.11289 7.57388 8.84966 6.8371C9.58644 6.10033 10.0004 5.10104 10.0004 4.05908C10.0004 3.01712 9.58644 2.01784 8.84966 1.28106C8.11289 0.544288 7.1136 0.130371 6.07165 0.130371ZM13.5719 5.13055C13.5719 4.75166 13.7224 4.38828 13.9903 4.12036C14.2583 3.85244 14.6216 3.70193 15.0005 3.70193C15.3794 3.70193 15.7428 3.85244 16.0107 4.12036C16.2786 4.38828 16.4292 4.75166 16.4292 5.13055C16.4292 5.50944 16.2786 5.87282 16.0107 6.14074C15.7428 6.40866 15.3794 6.55917 15.0005 6.55917C14.6216 6.55917 14.2583 6.40866 13.9903 6.14074C13.7224 5.87282 13.5719 5.50944 13.5719 5.13055ZM15.0005 2.2733C14.2427 2.2733 13.516 2.57433 12.9802 3.11017C12.4443 3.64601 12.1433 4.37276 12.1433 5.13055C12.1433 5.88834 12.4443 6.61509 12.9802 7.15093C13.516 7.68676 14.2427 7.98779 15.0005 7.98779C15.7583 7.98779 16.4851 7.68676 17.0209 7.15093C17.5567 6.61509 17.8578 5.88834 17.8578 5.13055C17.8578 4.37276 17.5567 3.64601 17.0209 3.11017C16.4851 2.57433 15.7583 2.2733 15.0005 2.2733ZM0 11.5594C0 10.991 0.225773 10.4459 0.627651 10.0441C1.02953 9.64219 1.57459 9.41642 2.14293 9.41642H10.0004C10.5687 9.41642 11.1138 9.64219 11.5156 10.0441C11.9175 10.4459 12.1433 10.991 12.1433 11.5594V11.7208C12.1419 11.7874 12.1371 11.8539 12.129 11.9201C12.1147 12.0437 12.0883 12.2115 12.0361 12.4101C11.8989 12.9339 11.6561 13.4242 11.3225 13.8509C10.4868 14.9238 8.9146 15.8452 6.07165 15.8452C3.22869 15.8452 1.6572 14.9238 0.820744 13.8509C0.486953 13.4243 0.243874 12.934 0.106432 12.4101C0.0518718 12.2 0.0169585 11.9852 0.00214295 11.7686C0.00145237 11.7527 0.000976056 11.7367 0.000714259 11.7208V11.7044L0 11.6986V11.5594ZM1.42862 11.6865V11.6951C1.43852 11.8152 1.45884 11.9342 1.48934 12.0508C1.55363 12.2994 1.68435 12.6351 1.94721 12.973C2.4508 13.6187 3.55727 14.4166 6.07165 14.4166C8.58602 14.4166 9.6932 13.6187 10.1961 12.9737C10.4096 12.7003 10.5652 12.3863 10.6532 12.0508C10.684 11.9342 10.7045 11.8152 10.7147 11.6951L10.7154 11.6865V11.5594C10.7154 11.3699 10.6401 11.1882 10.5062 11.0543C10.3722 10.9203 10.1905 10.845 10.0011 10.845H2.14293C1.95349 10.845 1.7718 10.9203 1.63784 11.0543C1.50388 11.1882 1.42862 11.3699 1.42862 11.5594V11.6865ZM12.484 14.0537C13.1483 14.2794 13.9748 14.4166 15.0005 14.4166C17.287 14.4166 18.5864 13.7359 19.2957 12.8987C19.6407 12.4915 19.8171 12.0787 19.9064 11.7615C19.9546 11.5915 19.9854 11.417 19.9986 11.2408L19.9993 11.2151L20 11.1993V11.1722C20.0001 10.9416 19.9547 10.7132 19.8665 10.5002C19.7783 10.2871 19.649 10.0935 19.486 9.93046C19.3229 9.7674 19.1293 9.63808 18.9162 9.54988C18.7032 9.46167 18.4748 9.41632 18.2442 9.41642H12.3947C12.7519 9.81572 13.0112 10.3043 13.134 10.845H18.2442C18.4228 10.845 18.5671 10.9872 18.5714 11.1636C18.5644 11.2347 18.551 11.305 18.5314 11.3736C18.4871 11.5308 18.3957 11.7508 18.2049 11.9758C17.8435 12.4037 16.9999 12.988 15.0005 12.988C14.1684 12.988 13.5369 12.8865 13.0569 12.738C12.9298 13.2017 12.7369 13.6448 12.484 14.0537Z" fill="#000103" fill-opacity="0.7" />
</svg>