<svg width="20" height="20" viewBox="0 0 17 17" fill="none" xmlns="http://www.w3.org/2000/svg">
  <path d="M3.25 0.698242C2.38805 0.698242 1.5614 1.04065 0.951903 1.65014C0.34241 2.25964 0 3.08629 0 3.94824V6.94824C4.19176e-09 7.14715 0.0790175 7.33792 0.21967 7.47857C0.360322 7.61922 0.551088 7.69824 0.75 7.69824C0.948912 7.69824 1.13968 7.61922 1.28033 7.47857C1.42098 7.33792 1.5 7.14715 1.5 6.94824V3.94824C1.5 2.98224 2.284 2.19824 3.25 2.19824H6.25C6.44891 2.19824 6.63968 2.11922 6.78033 1.97857C6.92098 1.83792 7 1.64715 7 1.44824C7 1.24933 6.92098 1.05856 6.78033 0.917912C6.63968 0.77726 6.44891 0.698242 6.25 0.698242H3.25ZM9.75 0.698242C9.55109 0.698242 9.36032 0.77726 9.21967 0.917912C9.07902 1.05856 9 1.24933 9 1.44824C9 1.64715 9.07902 1.83792 9.21967 1.97857C9.36032 2.11922 9.55109 2.19824 9.75 2.19824H12.75C13.716 2.19824 14.5 2.98224 14.5 3.94824V6.94824C14.5 7.14715 14.579 7.33792 14.7197 7.47857C14.8603 7.61922 15.0511 7.69824 15.25 7.69824C15.4489 7.69824 15.6397 7.61922 15.7803 7.47857C15.921 7.33792 16 7.14715 16 6.94824V3.94824C16 3.08629 15.6576 2.25964 15.0481 1.65014C14.4386 1.04065 13.612 0.698242 12.75 0.698242H9.75ZM0.75 9.69824C0.948912 9.69824 1.13968 9.77726 1.28033 9.91791C1.42098 10.0586 1.5 10.2493 1.5 10.4482V13.4482C1.5 14.4142 2.284 15.1982 3.25 15.1982H6.25C6.44891 15.1982 6.63968 15.2773 6.78033 15.4179C6.92098 15.5586 7 15.7493 7 15.9482C7 16.1472 6.92098 16.3379 6.78033 16.4786C6.63968 16.6192 6.44891 16.6982 6.25 16.6982H3.25C2.38805 16.6982 1.5614 16.3558 0.951903 15.7463C0.34241 15.1368 0 14.3102 0 13.4482V10.4482C0 10.2493 0.0790175 10.0586 0.21967 9.91791C0.360322 9.77726 0.551088 9.69824 0.75 9.69824ZM16 10.4482C16 10.2493 15.921 10.0586 15.7803 9.91791C15.6397 9.77726 15.4489 9.69824 15.25 9.69824C15.0511 9.69824 14.8603 9.77726 14.7197 9.91791C14.579 10.0586 14.5 10.2493 14.5 10.4482V13.4482C14.5 13.9124 14.3156 14.3575 13.9874 14.6857C13.6592 15.0139 13.2141 15.1982 12.75 15.1982H9.75C9.55109 15.1982 9.36032 15.2773 9.21967 15.4179C9.07902 15.5586 9 15.7493 9 15.9482C9 16.1472 9.07902 16.3379 9.21967 16.4786C9.36032 16.6192 9.55109 16.6982 9.75 16.6982H12.75C13.612 16.6982 14.4386 16.3558 15.0481 15.7463C15.6576 15.1368 16 14.3102 16 13.4482V10.4482Z" fill="#000103" fill-opacity="0.7" />
</svg>