<svg width="20" height="18" viewBox="0 0 20 18" fill="none" xmlns="http://www.w3.org/2000/svg">
  <path d="M5 6.09961V3.09961C5 2.56918 5.21071 2.06047 5.58579 1.6854C5.96086 1.31032 6.46957 1.09961 7 1.09961H17C17.5304 1.09961 18.0391 1.31032 18.4142 1.6854C18.7893 2.06047 19 2.56918 19 3.09961V15.0996C19 15.63 18.7893 16.1387 18.4142 16.5138C18.0391 16.8889 17.5304 17.0996 17 17.0996H11M11 17.0996V10.9276C10.9999 10.3972 10.7891 9.88859 10.414 9.51361L7.414 6.51361C7.03894 6.13867 6.53033 5.92804 6 5.92804C5.46967 5.92804 4.96106 6.13867 4.586 6.51361L1.586 9.51361C1.2109 9.88859 1.00011 10.3972 1 10.9276V15.0996C1 15.63 1.21071 16.1387 1.58579 16.5138C1.96086 16.8889 2.46957 17.0996 3 17.0996H6M11 17.0996H6M6 13.0996V17.0996M15.001 5.09961H15M11.001 5.09961H11M15.001 9.09961H15M15.001 13.0996H15" stroke="black" stroke-width="1.2" stroke-linecap="round" stroke-linejoin="round" />
</svg>